<?xml version="1.0" standalone="no"?>
<!DOCTYPE svg PUBLIC "-//W3C//DTD SVG 20010904//EN"
 "http://www.w3.org/TR/2001/REC-SVG-20010904/DTD/svg10.dtd">
<svg version="1.0" xmlns="http://www.w3.org/2000/svg"
 width="100.000000pt" height="100.000000pt" viewBox="0 0 100.000000 100.000000"
 preserveAspectRatio="xMidYMid meet">

<g transform="translate(0.000000,100.000000) scale(0.100000,-0.100000)"
fill="#000000" stroke="none">
<path d="M20 980 c-19 -19 -20 -33 -20 -280 0 -247 1 -261 20 -280 18 -18 33
-20 170 -20 143 0 150 1 150 20 0 18 -8 20 -147 22 l-148 3 -3 208 -2 207 300
0 300 0 0 -120 c0 -113 1 -120 20 -120 19 0 20 7 20 170 0 157 -2 172 -20 190
-19 19 -33 20 -320 20 -287 0 -301 -1 -320 -20z"/>
<path d="M132 748 c-16 -16 -16 -160 0 -176 16 -16 140 -16 156 0 16 16 16
160 0 176 -7 7 -40 12 -78 12 -38 0 -71 -5 -78 -12z"/>
<path d="M392 748 c-7 -7 -12 -38 -12 -70 l0 -58 90 0 90 0 0 58 c0 32 -5 63
-12 70 -7 7 -40 12 -78 12 -38 0 -71 -5 -78 -12z"/>
<path d="M372 588 c-17 -17 -17 -559 0 -576 17 -17 599 -17 616 0 17 17 17
559 0 576 -17 17 -599 17 -616 0z m588 -68 l0 -40 -280 0 -280 0 0 40 0 40
280 0 280 0 0 -40z m-345 -300 l0 -75 -65 0 -65 0 -3 64 c-4 91 -3 92 70 89
l63 -3 0 -75z m260 0 l0 -75 -65 0 -65 0 -3 64 c-4 91 -3 92 70 89 l63 -3 0
-75z"/>
</g>
</svg>
